<svg width="127" height="63" viewBox="0 0 127 63" fill="none" xmlns="http://www.w3.org/2000/svg">
<path d="M5.81114 57.2725C5.74074 57.3511 5.6757 57.4325 5.61572 57.5168C5.83608 57.2438 6.02076 57.0455 6.17418 56.9019C6.04601 57.0183 5.92668 57.1434 5.81114 57.2725Z" fill="url(#paint0_linear_1880_1042)"/>
<path d="M7.98792 51.8723C7.96772 51.7681 7.91247 51.6905 7.81618 51.6447C7.77798 51.6267 7.73821 51.6116 7.6978 51.5999C7.60404 51.5721 7.50712 51.5639 7.40957 51.5611C7.29971 51.5579 7.19111 51.5699 7.08251 51.586C6.865 51.6185 6.65412 51.6747 6.44986 51.7562C6.15027 51.8755 5.86552 52.0235 5.58897 52.1883C5.40808 52.2963 5.23981 52.4226 5.07565 52.5539C4.72618 52.8333 4.39817 53.1373 4.07869 53.4502C3.90317 53.6222 3.73174 53.7981 3.56411 53.9777C3.39427 54.1602 3.22948 54.3467 3.07542 54.5431C2.80297 54.8913 2.54663 55.2509 2.30418 55.6206C2.28682 55.6468 2.26914 55.673 2.25114 55.7001C2.23883 55.7001 2.22841 55.7011 2.21799 55.7001C2.06583 55.6831 1.91966 55.6436 1.77918 55.5836C1.51589 55.4709 1.29491 55.3017 1.11433 55.0795C0.953644 54.8815 0.841573 54.6602 0.782854 54.4111C0.744339 54.2489 0.72224 54.0847 0.714979 53.9187C0.705193 53.6942 0.715611 53.4701 0.750337 53.2478C0.752231 53.2361 0.750653 53.2241 0.750653 53.2118C0.743392 53.2128 0.737394 53.2118 0.732974 53.2143C0.493679 53.3274 0.254383 53.4407 0.0131934 53.5547C0.00940507 53.6017 0.00340678 53.6475 0.0024597 53.6932C0.000249844 53.7867 -0.000697159 53.8805 0.000565614 53.9742C0.00214408 54.091 0.0163502 54.2069 0.0387645 54.3215C0.0722279 54.4919 0.126212 54.6564 0.190929 54.8171C0.21871 54.8859 0.245544 54.9551 0.284058 55.0188C0.402128 55.2127 0.536613 55.3942 0.693828 55.5584C0.789483 55.6581 0.893978 55.7478 1.01299 55.8194C1.14401 55.8984 1.28323 55.9577 1.42971 56.0003C1.59987 56.0499 1.77318 56.0818 1.95092 56.0881C1.96292 56.0884 1.97617 56.0859 1.98501 56.1023C1.98028 56.1133 1.97523 56.1263 1.96923 56.1389C1.93324 56.2156 1.89567 56.2917 1.86158 56.3694C1.75898 56.6027 1.669 56.8401 1.60965 57.0882C1.58724 57.1813 1.56735 57.2745 1.56262 57.3701C1.55157 57.587 1.59955 57.7913 1.69994 57.9832C1.71194 58.0066 1.72772 58.0287 1.74477 58.0485C1.80917 58.1231 1.88715 58.1802 1.97428 58.2257C2.12392 58.3036 2.28492 58.3292 2.45161 58.3242C2.58767 58.3197 2.7231 58.3039 2.85696 58.2796C3.05332 58.2436 3.24747 58.1972 3.43847 58.1392C3.45488 58.1341 3.47193 58.1303 3.49024 58.1256C3.49024 58.1518 3.49213 58.1745 3.48992 58.1972C3.48298 58.2765 3.48298 58.356 3.4915 58.4353C3.49687 58.4861 3.50444 58.5369 3.51581 58.5868C3.53254 58.66 3.56285 58.7279 3.61367 58.7844C3.72511 58.9082 3.86434 58.9792 4.03007 58.9922C4.16077 59.0026 4.29115 58.9925 4.42027 58.9666C4.55918 58.9388 4.69398 58.8971 4.82752 58.851C4.92759 58.8163 5.02609 58.7772 5.12553 58.7409C5.13753 58.7364 5.14952 58.7251 5.16594 58.7352C5.17004 58.7661 5.17352 58.7974 5.17825 58.8289C5.19625 58.9533 5.22592 59.0749 5.27201 59.1923C5.3342 59.3495 5.43838 59.4695 5.58076 59.5585C5.70798 59.6377 5.84563 59.6914 5.99084 59.7261C6.01484 59.7318 6.03883 59.7353 6.06282 59.7397C6.25224 59.5727 6.42271 59.3912 6.58561 59.203C6.59224 59.1955 6.59698 59.1863 6.60613 59.173C6.58372 59.1705 6.56635 59.1674 6.54899 59.1661C6.45902 59.1601 6.36999 59.1484 6.28128 59.1314C6.17174 59.1105 6.0644 59.0818 5.96212 59.036C5.84057 58.9817 5.74492 58.8984 5.67736 58.7835C5.63853 58.7178 5.60917 58.6481 5.59086 58.5735C5.58455 58.548 5.57634 58.5227 5.57792 58.4949C5.58991 58.4867 5.60128 58.4782 5.61296 58.4706C5.78943 58.356 5.96243 58.2367 6.13196 58.1123C6.36021 57.9447 6.57646 57.7628 6.7744 57.5599C6.88426 57.4475 6.99065 57.3313 7.09419 57.2132C7.15923 57.139 7.21889 57.0595 7.27635 56.9793C7.31328 56.9278 7.34517 56.872 7.37327 56.8151C7.41873 56.7239 7.42409 56.6276 7.38716 56.5323C7.35243 56.4429 7.28424 56.3956 7.18764 56.3924C7.16144 56.3915 7.13429 56.3924 7.1084 56.3972C6.95276 56.4256 6.80439 56.4761 6.66422 56.5496C6.60708 56.5796 6.55152 56.6128 6.49785 56.6481C6.4044 56.7097 6.31601 56.7788 6.23109 56.8527C6.21751 56.8647 6.20394 56.8767 6.19036 56.8887C6.18563 56.8931 6.18058 56.8978 6.17553 56.9023C6.02178 57.0456 5.83742 57.2442 5.61706 57.5172C5.44312 57.7619 5.31368 58.0312 5.2256 58.3242C5.21424 58.3611 5.2054 58.3987 5.19467 58.4381C5.17762 58.4432 5.1612 58.4495 5.14416 58.4533C5.05292 58.4732 4.96169 58.4953 4.86982 58.512C4.7407 58.535 4.61032 58.5442 4.47899 58.5369C4.42248 58.5338 4.36692 58.524 4.31262 58.5066C4.24159 58.4839 4.18255 58.4441 4.13709 58.3848C4.11121 58.3507 4.09037 58.314 4.07396 58.2746C4.04617 58.2073 4.02976 58.1366 4.02313 58.0643C4.01934 58.0242 4.01366 57.9838 4.0225 57.9422C4.03386 57.9365 4.0446 57.9305 4.05596 57.9254C4.24853 57.8329 4.44174 57.742 4.63368 57.6476C4.95127 57.4917 5.25496 57.3111 5.54793 57.1128C5.91255 56.866 6.26455 56.602 6.60329 56.3204C6.85395 56.1124 7.08819 55.8873 7.29245 55.6325C7.39884 55.5 7.49954 55.3639 7.57626 55.2114C7.62929 55.1057 7.67854 54.998 7.70727 54.8821C7.71958 54.8323 7.72747 54.7818 7.72432 54.73C7.7199 54.6583 7.68643 54.6059 7.62045 54.5766C7.60277 54.5687 7.58447 54.562 7.56584 54.5567C7.52322 54.5444 7.47965 54.5387 7.43514 54.5377C7.3518 54.5361 7.26909 54.538 7.18669 54.55C7.10461 54.562 7.02285 54.5759 6.94361 54.6024C6.80786 54.6479 6.67369 54.6965 6.54141 54.7511C6.30622 54.8487 6.0764 54.9579 5.86141 55.0949C5.47879 55.339 5.123 55.6168 4.80636 55.9432C4.634 56.1209 4.46731 56.3034 4.31073 56.495C4.00261 56.8732 3.77531 57.2956 3.61778 57.7565C3.596 57.82 3.57674 57.8841 3.55496 57.9529C3.54549 57.9567 3.53728 57.9605 3.52907 57.9624C3.47919 57.974 3.42963 57.987 3.37911 57.9958C3.2904 58.0116 3.20106 58.0239 3.11235 58.0394C3.01954 58.0555 2.92673 58.0612 2.83297 58.0508C2.73194 58.0397 2.63503 58.0148 2.54347 57.9706C2.37553 57.8901 2.24988 57.7641 2.15454 57.6059C2.12992 57.5649 2.11318 57.5201 2.10214 57.4734C2.08856 57.4165 2.08162 57.3588 2.08067 57.3004C2.07783 57.1615 2.09929 57.0257 2.13023 56.8909C2.1839 56.6576 2.26598 56.4341 2.36164 56.2153C2.37142 56.1926 2.38247 56.1705 2.39226 56.1478C2.39952 56.1313 2.41151 56.1231 2.42919 56.1225C2.43961 56.1222 2.45035 56.1216 2.46076 56.1209C2.60914 56.1127 2.75657 56.0976 2.90368 56.078C3.06847 56.0559 3.23169 56.025 3.38985 55.9732C3.58116 55.9107 3.77184 55.8463 3.96062 55.7771C4.33787 55.6392 4.70218 55.4725 5.0485 55.2686C5.65179 54.9134 6.22067 54.5109 6.74346 54.0446C6.91109 53.895 7.07241 53.739 7.22079 53.5701C7.44335 53.3166 7.62961 53.0379 7.78935 52.7414C7.897 52.5416 7.96424 52.3291 7.99424 52.1044C8.00276 52.0273 8.00276 51.9497 7.98792 51.8723ZM5.55424 58.1429C5.60065 57.922 5.67831 57.7123 5.7907 57.5166C5.7907 57.5166 5.79448 57.51 5.80174 57.498C5.80395 57.4945 5.80648 57.4904 5.80901 57.486C5.89393 57.3468 6.26581 56.7801 6.72388 56.7204C6.73336 56.7192 6.74283 56.7182 6.75261 56.7176C6.7785 56.7151 6.80565 56.7176 6.83154 56.7223C6.88899 56.7321 6.91299 56.7602 6.91867 56.8186C6.9193 56.8274 6.91962 56.8363 6.92088 56.8559C6.91614 56.8821 6.91204 56.919 6.90257 56.9547C6.88426 57.0248 6.85837 57.0923 6.8208 57.1551C6.69863 57.3588 6.55941 57.5494 6.38925 57.7164C6.21751 57.885 6.03031 58.035 5.83174 58.171C5.78659 58.202 5.73766 58.2269 5.68873 58.2512C5.66221 58.2645 5.63253 58.2727 5.60349 58.2787C5.56908 58.2853 5.54856 58.2686 5.5473 58.2332C5.54635 58.2026 5.54824 58.172 5.55424 58.1429ZM4.04775 57.677C4.05596 57.6391 4.06291 57.6006 4.07553 57.564C4.15193 57.3395 4.24001 57.1201 4.34419 56.9073C4.46321 56.6649 4.61316 56.4429 4.78269 56.2333C4.88939 56.1014 5.00146 55.9741 5.12332 55.8557C5.16404 55.8166 5.20635 55.779 5.24928 55.7424C5.47342 55.5502 5.70451 55.3667 5.94886 55.2007C6.07008 55.1183 6.19478 55.0409 6.32737 54.9775C6.45397 54.9169 6.5853 54.8717 6.72388 54.8493C6.77945 54.8405 6.83596 54.8373 6.89215 54.8316C6.95118 54.8338 7.00864 54.8414 7.0661 54.8537C7.10714 54.8626 7.14313 54.885 7.16743 54.9175C7.16743 54.9175 7.16743 54.9175 7.16775 54.9178C7.18227 54.932 7.48755 55.2572 6.29423 56.3545C6.29296 56.3558 6.2917 56.3571 6.29075 56.358C6.16069 56.4856 6.02241 56.6039 5.87877 56.716C5.8592 56.7312 5.83994 56.7463 5.82005 56.7615C5.64863 56.8922 5.47437 57.0194 5.29443 57.1381C5.19277 57.205 5.08638 57.265 4.98126 57.3266C4.73407 57.4708 4.47804 57.5987 4.22075 57.7234C4.19076 57.7379 4.15793 57.7467 4.12636 57.7572C4.11815 57.7597 4.109 57.761 4.10016 57.7606C4.06954 57.7606 4.04996 57.7439 4.04649 57.7136C4.04523 57.7016 4.04523 57.689 4.04775 57.677ZM7.4203 52.6193C7.38842 52.7544 7.33349 52.8803 7.26782 53.0022C7.19206 53.1427 7.10051 53.2724 7.00201 53.3978C6.86626 53.5701 6.71883 53.7321 6.56509 53.8887C6.36178 54.0954 6.14995 54.2931 5.92929 54.4809C5.88509 54.5185 5.83868 54.5541 5.79038 54.5867C5.44185 54.8222 5.08481 55.0447 4.7145 55.2446C4.53739 55.3402 4.3584 55.4324 4.17056 55.5063C3.94957 55.5931 3.72133 55.654 3.48771 55.6954C3.29261 55.7301 3.09594 55.7484 2.898 55.7563C2.84843 55.7585 2.79887 55.7588 2.74962 55.7563C2.71805 55.7547 2.6868 55.7475 2.65586 55.7402C2.64481 55.7377 2.63534 55.7282 2.62082 55.7197C2.63313 55.6963 2.64197 55.6793 2.65144 55.6625C2.95072 55.1363 3.28472 54.6331 3.65977 54.1576C3.79109 53.9909 3.92968 53.8306 4.0768 53.6775C4.3344 53.4094 4.61 53.1613 4.89539 52.9239C5.09649 52.7566 5.30327 52.5962 5.51352 52.4403C5.57792 52.3926 5.64642 52.3534 5.71651 52.3162C5.92392 52.2054 6.13701 52.1066 6.35831 52.027C6.48143 51.9828 6.60645 51.9449 6.73557 51.9232C6.83911 51.9058 6.94266 51.8976 7.04652 51.9184C7.10209 51.9298 7.15607 51.9471 7.20595 51.974C7.33412 52.0434 7.40894 52.1517 7.43609 52.2938C7.45692 52.4033 7.44588 52.5116 7.4203 52.6193Z" fill="url(#paint1_linear_1880_1042)"/>
<path d="M10.8345 57.514V61.1504H10.3303L8.48189 58.4835H8.44815V61.1504H7.8995V57.514H8.40732L10.2575 60.1845H10.2912V57.514H10.8345ZM14.442 61.1504H13.8596L15.1682 57.514H15.8021L17.1107 61.1504H16.5283L15.5003 58.1745H15.4719L14.442 61.1504ZM14.5397 59.7264H16.4289V60.188H14.5397V59.7264ZM20.1358 61.1504V57.514H20.6845V59.2505H20.7289L22.2541 57.514H22.9448L21.4782 59.1511L22.9501 61.1504H22.2896L21.1142 59.5257L20.6845 60.0194V61.1504H20.1358Z" fill="#939393"/>
<path d="M34.6232 61.1465L33.6147 57.5101H34.1918L34.9002 60.3262H34.9339L35.6708 57.5101H36.2425L36.9794 60.3279H37.0131L37.7198 57.5101H38.2987L37.2884 61.1465H36.7362L35.9709 58.4228H35.9425L35.1772 61.1465H34.6232ZM41.9865 61.2015C41.7309 61.2015 41.5077 61.1429 41.3172 61.0257C41.1266 60.9086 40.9786 60.7446 40.8733 60.5339C40.7679 60.3232 40.7152 60.077 40.7152 59.7953C40.7152 59.5124 40.7679 59.265 40.8733 59.0531C40.9786 58.8412 41.1266 58.6767 41.3172 58.5595C41.5077 58.4423 41.7309 58.3837 41.9865 58.3837C42.2422 58.3837 42.4654 58.4423 42.6559 58.5595C42.8465 58.6767 42.9945 58.8412 43.0998 59.0531C43.2052 59.265 43.2578 59.5124 43.2578 59.7953C43.2578 60.077 43.2052 60.3232 43.0998 60.5339C42.9945 60.7446 42.8465 60.9086 42.6559 61.0257C42.4654 61.1429 42.2422 61.2015 41.9865 61.2015ZM41.9883 60.7559C42.154 60.7559 42.2913 60.7121 42.4002 60.6245C42.5092 60.5369 42.5896 60.4203 42.6417 60.2747C42.695 60.1291 42.7216 59.9687 42.7216 59.7935C42.7216 59.6195 42.695 59.4597 42.6417 59.3141C42.5896 59.1673 42.5092 59.0495 42.4002 58.9608C42.2913 58.872 42.154 58.8276 41.9883 58.8276C41.8214 58.8276 41.6829 58.872 41.5728 58.9608C41.4639 59.0495 41.3828 59.1673 41.3296 59.3141C41.2775 59.4597 41.2515 59.6195 41.2515 59.7935C41.2515 59.9687 41.2775 60.1291 41.3296 60.2747C41.3828 60.4203 41.4639 60.5369 41.5728 60.6245C41.6829 60.7121 41.8214 60.7559 41.9883 60.7559ZM46.2004 61.1465V58.4192H46.7136V58.8525H46.742C46.7917 58.7057 46.8793 58.5903 47.0048 58.5062C47.1314 58.421 47.2747 58.3784 47.4345 58.3784C47.4676 58.3784 47.5067 58.3796 47.5517 58.3819C47.5978 58.3843 47.6339 58.3873 47.66 58.3908V58.8986C47.6387 58.8927 47.6008 58.8862 47.5463 58.8791C47.4919 58.8708 47.4374 58.8667 47.383 58.8667C47.2575 58.8667 47.1456 58.8933 47.0474 58.9466C46.9503 58.9986 46.8734 59.0714 46.8166 59.165C46.7597 59.2573 46.7313 59.3626 46.7313 59.481V61.1465H46.2004ZM51.0003 57.5101V61.1465H50.4694V57.5101H51.0003ZM55.0855 61.1998C54.8653 61.1998 54.6688 61.1435 54.496 61.0311C54.3243 60.9174 54.1894 60.7559 54.0911 60.5463C53.9941 60.3356 53.9455 60.0829 53.9455 59.7882C53.9455 59.4934 53.9947 59.2413 54.0929 59.0318C54.1923 58.8223 54.3285 58.6619 54.5013 58.5506C54.6741 58.4393 54.87 58.3837 55.089 58.3837C55.2583 58.3837 55.3944 58.4121 55.4974 58.4689C55.6016 58.5246 55.682 58.5897 55.7389 58.6642C55.7969 58.7388 55.8418 58.8045 55.8738 58.8613H55.9058V57.5101H56.4367V61.1465H55.9182V60.7221H55.8738C55.8418 60.7801 55.7957 60.8464 55.7353 60.921C55.6761 60.9956 55.5945 61.0607 55.4903 61.1163C55.3861 61.1719 55.2512 61.1998 55.0855 61.1998ZM55.2026 60.747C55.3553 60.747 55.4844 60.7067 55.5897 60.6262C55.6963 60.5446 55.7767 60.4315 55.8312 60.2871C55.8868 60.1427 55.9146 59.9746 55.9146 59.7828C55.9146 59.5935 55.8874 59.4277 55.833 59.2857C55.7785 59.1436 55.6986 59.033 55.5933 58.9537C55.4879 58.8743 55.3577 58.8347 55.2026 58.8347C55.0428 58.8347 54.9097 58.8761 54.8031 58.959C54.6966 59.0418 54.6161 59.1549 54.5617 59.2981C54.5084 59.4413 54.4818 59.6029 54.4818 59.7828C54.4818 59.9651 54.509 60.1291 54.5634 60.2747C54.6179 60.4203 54.6984 60.5357 54.8049 60.6209C54.9126 60.705 55.0452 60.747 55.2026 60.747ZM61.1513 59.3798V59.8397H59.5391V59.3798H61.1513ZM67.2717 58.6926H66.7177C66.6964 58.5743 66.6568 58.4701 66.5988 58.3801C66.5408 58.2902 66.4697 58.2138 66.3857 58.1511C66.3016 58.0884 66.2075 58.041 66.1034 58.0091C66.0004 57.9771 65.8909 57.9611 65.7749 57.9611C65.5654 57.9611 65.3778 58.0138 65.212 58.1191C65.0475 58.2245 64.9173 58.379 64.8214 58.5826C64.7267 58.7862 64.6794 59.0347 64.6794 59.3283C64.6794 59.6242 64.7267 59.874 64.8214 60.0776C64.9173 60.2812 65.0481 60.4351 65.2138 60.5392C65.3795 60.6434 65.566 60.6955 65.7731 60.6955C65.8879 60.6955 65.9968 60.6801 66.0998 60.6493C66.204 60.6174 66.2981 60.5706 66.3821 60.5091C66.4662 60.4475 66.5372 60.3723 66.5952 60.2836C66.6544 60.1936 66.6952 60.0906 66.7177 59.9746L67.2717 59.9764C67.2421 60.1551 67.1847 60.3197 67.0995 60.47C67.0154 60.6191 66.9071 60.7482 66.7745 60.8571C66.6431 60.9648 66.4928 61.0482 66.3235 61.1074C66.1543 61.1666 65.9696 61.1962 65.7696 61.1962C65.4547 61.1962 65.1742 61.1216 64.9279 60.9725C64.6817 60.8221 64.4876 60.6073 64.3456 60.3279C64.2047 60.0486 64.1343 59.7154 64.1343 59.3283C64.1343 58.94 64.2053 58.6068 64.3473 58.3287C64.4894 58.0493 64.6835 57.835 64.9297 57.6859C65.1759 57.5356 65.4559 57.4604 65.7696 57.4604C65.9625 57.4604 66.1424 57.4882 66.3093 57.5439C66.4774 57.5983 66.6283 57.6788 66.7621 57.7853C66.8959 57.8907 67.0065 58.0197 67.0941 58.1724C67.1817 58.3239 67.2409 58.4973 67.2717 58.6926ZM70.7665 57.5101V61.1465H70.2356V57.5101H70.7665ZM74.6244 61.2069C74.4516 61.2069 74.2953 61.1749 74.1556 61.111C74.016 61.0459 73.9053 60.9518 73.8236 60.8287C73.7431 60.7056 73.7029 60.5546 73.7029 60.3759C73.7029 60.222 73.7325 60.0953 73.7917 59.9959C73.8508 59.8965 73.9307 59.8178 74.0314 59.7598C74.132 59.7018 74.2444 59.658 74.3687 59.6284C74.493 59.5988 74.6197 59.5763 74.7487 59.5609C74.912 59.542 75.0446 59.5266 75.1464 59.5147C75.2482 59.5017 75.3222 59.481 75.3684 59.4526C75.4145 59.4242 75.4376 59.378 75.4376 59.3141V59.3017C75.4376 59.1466 75.3938 59.0265 75.3062 58.9412C75.2198 58.856 75.0908 58.8134 74.9191 58.8134C74.7404 58.8134 74.5995 58.853 74.4966 58.9324C74.3948 59.0105 74.3243 59.0975 74.2853 59.1934L73.7863 59.0797C73.8455 58.914 73.9319 58.7802 74.0456 58.6784C74.1604 58.5755 74.2924 58.5009 74.4415 58.4547C74.5907 58.4074 74.7475 58.3837 74.912 58.3837C75.0209 58.3837 75.1364 58.3967 75.2583 58.4228C75.3814 58.4476 75.4962 58.4938 75.6027 58.5613C75.7105 58.6287 75.7986 58.7252 75.8673 58.8507C75.9359 58.975 75.9703 59.1365 75.9703 59.3354V61.1465H75.4518V60.7736H75.4305C75.3962 60.8423 75.3447 60.9097 75.276 60.976C75.2074 61.0423 75.1192 61.0974 75.0115 61.1412C74.9038 61.185 74.7747 61.2069 74.6244 61.2069ZM74.7398 60.7807C74.8866 60.7807 75.0121 60.7517 75.1162 60.6937C75.2216 60.6357 75.3015 60.56 75.3559 60.4664C75.4116 60.3717 75.4394 60.2705 75.4394 60.1628V59.8113C75.4204 59.8302 75.3837 59.848 75.3293 59.8645C75.276 59.8799 75.2151 59.8935 75.1464 59.9054C75.0778 59.916 75.0109 59.9261 74.9458 59.9355C74.8807 59.9438 74.8262 59.9509 74.7824 59.9569C74.6794 59.9699 74.5853 59.9918 74.5001 60.0225C74.4161 60.0533 74.3486 60.0977 74.2977 60.1557C74.248 60.2125 74.2231 60.2883 74.2231 60.383C74.2231 60.5144 74.2716 60.6138 74.3687 60.6813C74.4658 60.7476 74.5895 60.7807 74.7398 60.7807ZM81.0711 59.085L80.5899 59.1703C80.5698 59.1087 80.5378 59.0501 80.494 58.9945C80.4514 58.9389 80.3934 58.8933 80.32 58.8578C80.2466 58.8223 80.1549 58.8045 80.0448 58.8045C79.8945 58.8045 79.769 58.8382 79.6684 58.9057C79.5678 58.972 79.5175 59.0578 79.5175 59.1632C79.5175 59.2543 79.5512 59.3277 79.6187 59.3833C79.6861 59.439 79.795 59.4846 79.9454 59.5201L80.3786 59.6195C80.6295 59.6775 80.8166 59.7669 80.9397 59.8876C81.0628 60.0083 81.1243 60.1652 81.1243 60.3581C81.1243 60.5215 81.077 60.6671 80.9823 60.7949C80.8888 60.9216 80.758 61.021 80.5899 61.0932C80.423 61.1654 80.2295 61.2015 80.0093 61.2015C79.7039 61.2015 79.4547 61.1364 79.2618 61.0062C79.0688 60.8748 78.9505 60.6884 78.9067 60.4469L79.4198 60.3688C79.4518 60.5025 79.5175 60.6038 79.6169 60.6724C79.7163 60.7399 79.8459 60.7736 80.0057 60.7736C80.1797 60.7736 80.3188 60.7375 80.423 60.6653C80.5272 60.5919 80.5792 60.5025 80.5792 60.3972C80.5792 60.312 80.5473 60.2404 80.4834 60.1824C80.4206 60.1243 80.3242 60.0806 80.1939 60.051L79.7323 59.9498C79.4778 59.8917 79.2896 59.7994 79.1677 59.6728C79.0469 59.5461 78.9866 59.3857 78.9866 59.1916C78.9866 59.0306 79.0315 58.8897 79.1215 58.769C79.2115 58.6483 79.3358 58.5542 79.4944 58.4867C79.653 58.418 79.8347 58.3837 80.0395 58.3837C80.3342 58.3837 80.5662 58.4476 80.7355 58.5755C80.9048 58.7021 81.0166 58.872 81.0711 59.085ZM86.1017 59.085L85.6206 59.1703C85.6004 59.1087 85.5685 59.0501 85.5247 58.9945C85.4821 58.9389 85.4241 58.8933 85.3507 58.8578C85.2773 58.8223 85.1855 58.8045 85.0755 58.8045C84.9251 58.8045 84.7997 58.8382 84.699 58.9057C84.5984 58.972 84.5481 59.0578 84.5481 59.1632C84.5481 59.2543 84.5819 59.3277 84.6493 59.3833C84.7168 59.439 84.8257 59.4846 84.976 59.5201L85.4093 59.6195C85.6602 59.6775 85.8472 59.7669 85.9703 59.8876C86.0935 60.0083 86.155 60.1652 86.155 60.3581C86.155 60.5215 86.1077 60.6671 86.013 60.7949C85.9194 60.9216 85.7886 61.021 85.6206 61.0932C85.4537 61.1654 85.2601 61.2015 85.04 61.2015C84.7346 61.2015 84.4854 61.1364 84.2924 61.0062C84.0995 60.8748 83.9811 60.6884 83.9373 60.4469L84.4505 60.3688C84.4824 60.5025 84.5481 60.6038 84.6475 60.6724C84.747 60.7399 84.8766 60.7736 85.0364 60.7736C85.2104 60.7736 85.3495 60.7375 85.4537 60.6653C85.5578 60.5919 85.6099 60.5025 85.6099 60.3972C85.6099 60.312 85.5779 60.2404 85.514 60.1824C85.4513 60.1243 85.3548 60.0806 85.2246 60.051L84.763 59.9498C84.5085 59.8917 84.3203 59.7994 84.1983 59.6728C84.0776 59.5461 84.0172 59.3857 84.0172 59.1916C84.0172 59.0306 84.0622 58.8897 84.1522 58.769C84.2421 58.6483 84.3664 58.5542 84.525 58.4867C84.6837 58.418 84.8654 58.3837 85.0701 58.3837C85.3649 58.3837 85.5969 58.4476 85.7662 58.5755C85.9354 58.7021 86.0473 58.872 86.1017 59.085ZM94.035 58.4192V58.8453H92.5453V58.4192H94.035ZM92.9448 57.7658H93.4757V60.3457C93.4757 60.4487 93.4911 60.5262 93.5219 60.5783C93.5527 60.6292 93.5923 60.6641 93.6409 60.6831C93.6906 60.7008 93.7444 60.7097 93.8024 60.7097C93.8451 60.7097 93.8823 60.7067 93.9143 60.7008C93.9463 60.6949 93.9711 60.6902 93.9889 60.6866L94.0848 61.1252C94.054 61.137 94.0102 61.1489 93.9534 61.1607C93.8966 61.1737 93.8255 61.1808 93.7403 61.182C93.6006 61.1844 93.4704 61.1595 93.3497 61.1074C93.2289 61.0553 93.1313 60.9748 93.0567 60.8659C92.9821 60.757 92.9448 60.6203 92.9448 60.4558V57.7658ZM98.1184 61.2015C97.8497 61.2015 97.6183 61.1441 97.4242 61.0293C97.2313 60.9133 97.0821 60.7505 96.9768 60.541C96.8726 60.3303 96.8205 60.0835 96.8205 59.8006C96.8205 59.5212 96.8726 59.275 96.9768 59.062C97.0821 58.8489 97.2289 58.6826 97.4171 58.563C97.6065 58.4435 97.8278 58.3837 98.0812 58.3837C98.235 58.3837 98.3842 58.4092 98.5286 58.46C98.673 58.5109 98.8026 58.5908 98.9175 58.6998C99.0323 58.8087 99.1228 58.9501 99.1891 59.1241C99.2554 59.2969 99.2885 59.507 99.2885 59.7544V59.9426H97.1206V59.5449H98.7683C98.7683 59.4052 98.7399 59.2815 98.6831 59.1738C98.6263 59.0649 98.5464 58.9791 98.4434 58.9164C98.3416 58.8536 98.222 58.8223 98.0847 58.8223C97.9356 58.8223 97.8054 58.859 97.6941 58.9324C97.584 59.0046 97.4988 59.0993 97.4384 59.2164C97.3792 59.3324 97.3496 59.4585 97.3496 59.5946V59.9054C97.3496 60.0877 97.3816 60.2427 97.4455 60.3706C97.5106 60.4984 97.6012 60.5961 97.7172 60.6635C97.8332 60.7298 97.9687 60.763 98.1238 60.763C98.2244 60.763 98.3161 60.7488 98.399 60.7203C98.4818 60.6908 98.5535 60.647 98.6138 60.589C98.6742 60.531 98.7204 60.4593 98.7523 60.3741L99.2548 60.4647C99.2146 60.6126 99.1424 60.7422 99.0382 60.8535C98.9352 60.9636 98.8056 61.0494 98.6493 61.111C98.4943 61.1713 98.3173 61.2015 98.1184 61.2015ZM102.758 57.5101V61.1465H102.228V57.5101H102.758ZM106.998 61.2015C106.729 61.2015 106.498 61.1441 106.304 61.0293C106.111 60.9133 105.962 60.7505 105.856 60.541C105.752 60.3303 105.7 60.0835 105.7 59.8006C105.7 59.5212 105.752 59.275 105.856 59.062C105.962 58.8489 106.109 58.6826 106.297 58.563C106.486 58.4435 106.708 58.3837 106.961 58.3837C107.115 58.3837 107.264 58.4092 107.408 58.46C107.553 58.5109 107.682 58.5908 107.797 58.6998C107.912 58.8087 108.003 58.9501 108.069 59.1241C108.135 59.2969 108.168 59.507 108.168 59.7544V59.9426H106V59.5449H107.648C107.648 59.4052 107.62 59.2815 107.563 59.1738C107.506 59.0649 107.426 58.9791 107.323 58.9164C107.221 58.8536 107.102 58.8223 106.964 58.8223C106.815 58.8223 106.685 58.859 106.574 58.9324C106.464 59.0046 106.378 59.0993 106.318 59.2164C106.259 59.3324 106.229 59.4585 106.229 59.5946V59.9054C106.229 60.0877 106.261 60.2427 106.325 60.3706C106.39 60.4984 106.481 60.5961 106.597 60.6635C106.713 60.7298 106.848 60.763 107.003 60.763C107.104 60.763 107.196 60.7488 107.279 60.7203C107.362 60.6908 107.433 60.647 107.494 60.589C107.554 60.531 107.6 60.4593 107.632 60.3741L108.134 60.4647C108.094 60.6126 108.022 60.7422 107.918 60.8535C107.815 60.9636 107.685 61.0494 107.529 61.111C107.374 61.1713 107.197 61.2015 106.998 61.2015ZM112.256 61.2015C111.992 61.2015 111.765 61.1417 111.574 61.0222C111.385 60.9015 111.239 60.7351 111.137 60.5233C111.036 60.3114 110.985 60.0687 110.985 59.7953C110.985 59.5183 111.037 59.2739 111.141 59.062C111.245 58.8489 111.392 58.6826 111.581 58.563C111.771 58.4435 111.994 58.3837 112.251 58.3837C112.458 58.3837 112.643 58.4222 112.805 58.4991C112.967 58.5749 113.098 58.6814 113.197 58.8187C113.298 58.956 113.358 59.1164 113.376 59.2999H112.86C112.831 59.1721 112.766 59.062 112.664 58.9696C112.564 58.8773 112.429 58.8311 112.26 58.8311C112.112 58.8311 111.982 58.8702 111.871 58.9483C111.761 59.0253 111.675 59.1354 111.613 59.2786C111.552 59.4206 111.521 59.5887 111.521 59.7828C111.521 59.9817 111.551 60.1533 111.612 60.2978C111.672 60.4422 111.757 60.554 111.867 60.6333C111.978 60.7127 112.109 60.7523 112.26 60.7523C112.36 60.7523 112.451 60.734 112.533 60.6973C112.616 60.6594 112.685 60.6055 112.741 60.5357C112.798 60.4658 112.837 60.3818 112.86 60.2836H113.376C113.358 60.4599 113.3 60.6174 113.204 60.7559C113.108 60.8944 112.98 61.0033 112.819 61.0826C112.659 61.1619 112.472 61.2015 112.256 61.2015ZM117.443 61.2015C117.187 61.2015 116.964 61.1429 116.774 61.0257C116.583 60.9086 116.435 60.7446 116.33 60.5339C116.224 60.3232 116.172 60.077 116.172 59.7953C116.172 59.5124 116.224 59.265 116.33 59.0531C116.435 58.8412 116.583 58.6767 116.774 58.5595C116.964 58.4423 117.187 58.3837 117.443 58.3837C117.699 58.3837 117.922 58.4423 118.112 58.5595C118.303 58.6767 118.451 58.8412 118.556 59.0531C118.662 59.265 118.714 59.5124 118.714 59.7953C118.714 60.077 118.662 60.3232 118.556 60.5339C118.451 60.7446 118.303 60.9086 118.112 61.0257C117.922 61.1429 117.699 61.2015 117.443 61.2015ZM117.445 60.7559C117.61 60.7559 117.748 60.7121 117.857 60.6245C117.966 60.5369 118.046 60.4203 118.098 60.2747C118.151 60.1291 118.178 59.9687 118.178 59.7935C118.178 59.6195 118.151 59.4597 118.098 59.3141C118.046 59.1673 117.966 59.0495 117.857 58.9608C117.748 58.872 117.61 58.8276 117.445 58.8276C117.278 58.8276 117.139 58.872 117.029 58.9608C116.92 59.0495 116.839 59.1673 116.786 59.3141C116.734 59.4597 116.708 59.6195 116.708 59.7935C116.708 59.9687 116.734 60.1291 116.786 60.2747C116.839 60.4203 116.92 60.5369 117.029 60.6245C117.139 60.7121 117.278 60.7559 117.445 60.7559ZM121.657 61.1465V58.4192H122.166V58.8631H122.2C122.257 58.7128 122.35 58.5956 122.479 58.5115C122.608 58.4263 122.762 58.3837 122.942 58.3837C123.125 58.3837 123.277 58.4263 123.4 58.5115C123.525 58.5968 123.617 58.714 123.676 58.8631H123.704C123.769 58.7175 123.873 58.6015 124.015 58.5151C124.157 58.4275 124.326 58.3837 124.523 58.3837C124.77 58.3837 124.972 58.4612 125.128 58.6163C125.286 58.7714 125.364 59.0051 125.364 59.3176V61.1465H124.833V59.3674C124.833 59.1827 124.783 59.0489 124.682 58.9661C124.582 58.8832 124.462 58.8418 124.322 58.8418C124.149 58.8418 124.015 58.8951 123.919 59.0016C123.823 59.1069 123.775 59.2425 123.775 59.4082V61.1465H123.246V59.3336C123.246 59.1857 123.2 59.0667 123.108 58.9767C123.015 58.8868 122.895 58.8418 122.747 58.8418C122.646 58.8418 122.554 58.8684 122.468 58.9217C122.384 58.9738 122.316 59.0466 122.264 59.1401C122.213 59.2336 122.188 59.3419 122.188 59.465V61.1465H121.657Z" fill="#939393"/>
<path d="M15.4018 19.8759L17.1723 26.5914L9.05339 50.4639L4.6786 50.5127L15.4018 19.8759Z" fill="#1AB394"/>
<path d="M18.7529 25.1079L15.9812 16.876L14.9578 20.9545L14.8828 21.2962L14.8078 21.6378L14.5344 24.7331L22.674 50.4263L26.9926 50.4921L18.7529 25.1079Z" fill="#1AB394"/>
<path d="M113.014 19.8759L114.785 26.5914L106.666 50.4639L102.291 50.5127L113.014 19.8759Z" fill="#1AB394"/>
<path d="M116.365 25.1079L113.594 16.876L112.57 20.9545L112.495 21.2962L112.42 21.6378L112.147 24.7331L120.286 50.4263L124.605 50.4921L116.365 25.1079Z" fill="#1AB394"/>
<rect x="37.7988" y="18.376" width="4.1175" height="31.5" fill="#1AB394"/>
<rect x="37.7988" y="18.3877" width="18.75" height="3.75" fill="#1AB394"/>
<rect x="37.7988" y="30.8271" width="18" height="3.75" fill="#1AB394"/>
<path fill-rule="evenodd" clip-rule="evenodd" d="M85.2919 18.376C85.3219 18.8621 85.5813 19.1861 86.0698 19.3483C85.2114 19.764 84.6101 21.376 84.2351 22.0285C83.4851 21.7285 79.8833 21.8562 79.8833 21.8562L71.2713 21.8384C71.2713 31.8209 71.2713 40.2853 71.2713 50.2678C70.3639 50.2678 67.9562 50.2678 67.0488 50.2678C67.0488 39.6373 67.0488 29.0065 67.0488 18.376C72.1049 18.376 80.2359 18.376 85.2919 18.376Z" fill="#1AB394"/>
<path fill-rule="evenodd" clip-rule="evenodd" d="M85.2854 18.376C87.2168 19.1842 89.1576 20.0833 90.3104 21.6291C91.3432 23.0142 91.6843 24.9777 91.7916 26.8879C91.7489 29.01 91.1963 30.8773 90.0104 32.4104C89.2749 33.3611 87.8286 34.1371 86.7634 34.9053C85.6698 35.5077 84.503 35.8317 83.2631 35.8776C83.2631 35.8776 88.9999 45.6599 91.7916 50.2539L87.5413 50.2678L79.1794 35.4887L78.146 33.544C85.0595 34.2149 89.9262 29.1429 87.3607 24.2098C87.1494 23.8034 86.7951 23.463 86.4104 23.103C85.8893 22.6154 85.2492 22.1549 84.2482 22.0299C84.2429 22.0292 84.2397 22.0237 84.2423 22.019C84.6169 21.3387 85.1312 19.7621 85.9856 19.3483C85.4971 19.1861 85.3153 18.8621 85.2854 18.376Z" fill="#1AB394"/>
<circle cx="16.4526" cy="11" r="3" fill="#F79F1E"/>
<path d="M11.8181 17.3168C10.5429 16.5046 9.51287 15.4619 8.80782 14.2696C8.10277 13.0774 7.74172 11.7678 7.75268 10.4423C7.76365 9.11693 8.14635 7.81143 8.87107 6.62719C9.59578 5.44296 10.643 4.41185 11.9315 3.61394L13.939 5.80122C13.0597 6.34573 12.3451 7.04936 11.8505 7.85749C11.356 8.66562 11.0948 9.5565 11.0873 10.461C11.0799 11.3654 11.3262 12.2592 11.8074 13.0727C12.2885 13.8863 12.9914 14.5979 13.8616 15.1521L11.8181 17.3168Z" fill="url(#paint2_linear_1880_1042)"/>
<path d="M20.9368 17.3168C22.2119 16.5046 23.242 15.4619 23.9471 14.2696C24.6521 13.0774 25.0132 11.7678 25.0022 10.4423C24.9912 9.11693 24.6085 7.81143 23.8838 6.62719C23.1591 5.44296 22.1119 4.41185 20.8234 3.61394L18.8159 5.80122C19.6952 6.34573 20.4098 7.04936 20.9043 7.85749C21.3989 8.66562 21.6601 9.5565 21.6675 10.461C21.675 11.3654 21.4286 12.2592 20.9475 13.0727C20.4664 13.8863 19.7634 14.5979 18.8933 15.1521L20.9368 17.3168Z" fill="url(#paint3_linear_1880_1042)"/>
<path d="M24.2522 20.626C25.9073 19.647 27.2455 18.076 28.3671 16.3008C29.4137 14.5257 29.8919 12.3428 29.8766 10.1883C29.8613 8.03384 29.2782 5.937 28.2066 4.1823C27.1349 2.4276 25.4673 0.721346 23.7268 0.000976562L22.2268 2.62598C23.4145 3.11756 25.1473 4.92005 25.8786 6.11746C26.61 7.31486 27.0078 8.74575 27.0183 10.216C27.0287 11.6862 26.6512 13.1246 25.937 14.336C25.2228 15.5473 23.5578 17.8615 22.3772 18.376L24.2522 20.626Z" fill="url(#paint4_linear_1880_1042)"/>
<path d="M8.50266 20.625C6.84763 19.6461 5.50933 18.075 4.38774 16.2999C3.34115 14.5247 2.86298 12.3418 2.87829 10.1874C2.89359 8.03286 3.47664 5.93602 4.54832 4.18132C5.61999 2.42663 7.28756 0.72037 9.02806 0L10.5281 2.625C9.34036 3.11658 7.60755 4.91908 6.87624 6.11648C6.14493 7.31389 5.74706 8.74477 5.73661 10.215C5.72616 11.6852 6.10365 13.1236 6.81784 14.335C7.53204 15.5464 9.1971 17.8605 10.3777 18.375L8.50266 20.625Z" fill="url(#paint5_linear_1880_1042)"/>
<defs>
<linearGradient id="paint0_linear_1880_1042" x1="6.11615" y1="57.1497" x2="5.66704" y2="57.2708" gradientUnits="userSpaceOnUse">
<stop stop-color="#CC1E4F"/>
<stop offset="1" stop-color="#FAA71B"/>
</linearGradient>
<linearGradient id="paint1_linear_1880_1042" x1="-3.42202e-05" y1="55.6495" x2="7.99965" y2="55.6495" gradientUnits="userSpaceOnUse">
<stop stop-color="#FAA71B"/>
<stop offset="1" stop-color="#CC1E4F"/>
</linearGradient>
<linearGradient id="paint2_linear_1880_1042" x1="11.7549" y1="11" x2="1.75488" y2="10.5" gradientUnits="userSpaceOnUse">
<stop stop-color="#EC7E2A"/>
<stop offset="1" stop-color="#CF274B"/>
</linearGradient>
<linearGradient id="paint3_linear_1880_1042" x1="21" y1="11" x2="31" y2="10.5" gradientUnits="userSpaceOnUse">
<stop stop-color="#EC7E2A"/>
<stop offset="1" stop-color="#CF274B"/>
</linearGradient>
<linearGradient id="paint4_linear_1880_1042" x1="27.5" y1="9.5" x2="30" y2="9.5" gradientUnits="userSpaceOnUse">
<stop stop-color="#DD503C"/>
<stop offset="1" stop-color="#CE254C"/>
</linearGradient>
<linearGradient id="paint5_linear_1880_1042" x1="5.25488" y1="9.49902" x2="2.75488" y2="9.49902" gradientUnits="userSpaceOnUse">
<stop stop-color="#DD503C"/>
<stop offset="1" stop-color="#CE254C"/>
</linearGradient>
</defs>
</svg>
