<svg width="250" height="200" viewBox="0 0 250 200" fill="none" xmlns="http://www.w3.org/2000/svg">
<rect width="250" height="200" fill="white"/>
<path fill-rule="evenodd" clip-rule="evenodd" d="M207 65C210.866 65 214 68.134 214 72C214 75.866 210.866 79 207 79H167C170.866 79 174 82.134 174 86C174 89.866 170.866 93 167 93H189C192.866 93 196 96.134 196 100C196 103.866 192.866 107 189 107H178.826C173.952 107 170 110.134 170 114C170 116.577 172 118.911 176 121C179.866 121 183 124.134 183 128C183 131.866 179.866 135 176 135H93C89.134 135 86 131.866 86 128C86 124.134 89.134 121 93 121H54C50.134 121 47 117.866 47 114C47 110.134 50.134 107 54 107H94C97.866 107 101 103.866 101 100C101 96.134 97.866 93 94 93H69C65.134 93 62 89.866 62 86C62 82.134 65.134 79 69 79H109C105.134 79 102 75.866 102 72C102 68.134 105.134 65 109 65H207ZM207 93C210.866 93 214 96.134 214 100C214 103.866 210.866 107 207 107C203.134 107 200 103.866 200 100C200 96.134 203.134 93 207 93Z" fill="#E1F6F2"/>
<path fill-rule="evenodd" clip-rule="evenodd" d="M153.672 64L162.974 131.843L163.81 138.649C164.079 140.842 162.52 142.837 160.327 143.107L101.767 150.297C99.5743 150.566 97.5785 149.007 97.3093 146.814L88.2935 73.3868C88.1589 72.2904 88.9386 71.2925 90.0349 71.1579C90.0418 71.1571 90.0488 71.1563 90.0557 71.1555L94.9141 70.6105M98.8426 70.1698L103.43 69.6553L98.8426 70.1698Z" fill="white"/>
<path d="M154.911 63.8302C154.817 63.1462 154.186 62.6678 153.503 62.7616C152.819 62.8554 152.34 63.4858 152.434 64.1698L154.911 63.8302ZM162.974 131.843L164.215 131.69C164.214 131.685 164.213 131.679 164.213 131.673L162.974 131.843ZM163.81 138.649L165.051 138.497L163.81 138.649ZM160.327 143.107L160.48 144.347L160.327 143.107ZM101.767 150.297L101.919 151.538L101.767 150.297ZM97.3093 146.814L98.55 146.662L97.3093 146.814ZM90.0557 71.1555L90.195 72.3977L90.0557 71.1555ZM95.0534 71.8527C95.7394 71.7758 96.2332 71.1572 96.1563 70.4712C96.0793 69.7851 95.4608 69.2913 94.7747 69.3683L95.0534 71.8527ZM98.7032 68.9276C98.0172 69.0046 97.5234 69.6231 97.6004 70.3092C97.6773 70.9952 98.2959 71.489 98.9819 71.412L98.7032 68.9276ZM103.569 70.8975C104.255 70.8205 104.749 70.202 104.672 69.5159C104.595 68.8299 103.976 68.3361 103.29 68.4131L103.569 70.8975ZM152.434 64.1698L161.736 132.013L164.213 131.673L154.911 63.8302L152.434 64.1698ZM161.734 131.995L162.569 138.801L165.051 138.497L164.215 131.69L161.734 131.995ZM162.569 138.801C162.754 140.309 161.682 141.681 160.175 141.866L160.48 144.347C163.357 143.994 165.404 141.375 165.051 138.497L162.569 138.801ZM160.175 141.866L101.615 149.056L101.919 151.538L160.48 144.347L160.175 141.866ZM101.615 149.056C100.107 149.241 98.7351 148.169 98.55 146.662L96.0686 146.967C96.422 149.845 99.0414 151.891 101.919 151.538L101.615 149.056ZM98.55 146.662L89.5342 73.2344L87.0529 73.5391L96.0686 146.967L98.55 146.662ZM89.5342 73.2344C89.4837 72.8233 89.7761 72.4491 90.1872 72.3986L89.8826 69.9172C88.101 70.136 86.8341 71.7575 87.0529 73.5391L89.5342 73.2344ZM90.1872 72.3986C90.1898 72.3983 90.1924 72.398 90.195 72.3977L89.9163 69.9133C89.9051 69.9145 89.8938 69.9159 89.8826 69.9172L90.1872 72.3986ZM90.195 72.3977L95.0534 71.8527L94.7747 69.3683L89.9163 69.9133L90.195 72.3977ZM98.9819 71.412L103.569 70.8975L103.29 68.4131L98.7032 68.9276L98.9819 71.412Z" fill="#1AB394"/>
<path fill-rule="evenodd" clip-rule="evenodd" d="M151.14 68.2692L159.559 129.753L160.317 135.921C160.561 137.908 159.167 139.715 157.203 139.956L104.761 146.395C102.797 146.636 101.008 145.22 100.764 143.233L92.6139 76.8568C92.4792 75.7604 93.2589 74.7626 94.3552 74.6279L100.843 73.8314" fill="#E8F0FE"/>
<path d="M107.922 54C107.922 52.4812 109.153 51.25 110.672 51.25H156.229C156.958 51.25 157.657 51.5395 158.173 52.0549L171.616 65.4898C172.132 66.0056 172.422 66.7053 172.422 67.4349V130C172.422 131.519 171.191 132.75 169.672 132.75H110.672C109.153 132.75 107.922 131.519 107.922 130V54Z" fill="white" stroke="#1AB394" stroke-width="2.5"/>
<path d="M156.672 52.4028V64C156.672 65.6569 158.015 67 159.672 67H167.605" stroke="#1AB394" stroke-width="2.5" stroke-linecap="round" stroke-linejoin="round"/>
<path d="M118 118H144M118 67H144H118ZM118 79H161H118ZM118 92H161H118ZM118 105H161H118Z" stroke="#1AB394" stroke-width="2.5" stroke-linecap="round" stroke-linejoin="round"/>
</svg>
